<svg width="40" height="40" viewBox="0 0 40 40" fill="none" xmlns="http://www.w3.org/2000/svg">
<g clip-path="url(#clip0_208_566)">
<path d="M20.982 23.778C20.4211 23.778 19.9664 24.2327 19.9664 24.7937C19.9659 27.4226 17.8345 29.5534 15.2055 29.553C12.5765 29.5526 10.4456 27.4211 10.4461 24.7921C10.4466 22.1634 12.5776 20.0327 15.2062 20.0327C15.7672 20.0327 16.2219 19.578 16.2219 19.0171C16.2219 18.4562 15.7672 18.0015 15.2062 18.0015C11.4561 18.004 8.41664 21.0435 8.41406 24.7937C8.41406 28.5447 11.4548 31.5855 15.2059 31.5855C18.9569 31.5855 21.9977 28.5447 21.9977 24.7937C21.9977 24.2327 21.543 23.778 20.982 23.778Z" fill="#1C1C28"/>
<path d="M29.0516 27.1296C28.9547 26.5771 28.4283 26.2077 27.8758 26.3046L25.75 26.6772C25.3612 26.7454 25.047 27.0327 24.9445 27.414C24.7179 28.2552 24.3825 29.0633 23.9469 29.8179C23.7483 30.1607 23.7672 30.5877 23.9953 30.9116L25.2359 32.6796C25.4095 32.9258 25.3805 33.2613 25.1672 33.4741L23.8922 34.7491C23.6797 34.9622 23.3447 34.9916 23.0984 34.8187L21.3305 33.578C21.0066 33.3499 20.5795 33.331 20.2367 33.5296C19.4823 33.9653 18.6741 34.3007 17.8328 34.5272C17.4516 34.6297 17.1642 34.9439 17.0961 35.3327L16.7188 37.4562C16.6671 37.7526 16.4095 37.969 16.1086 37.9687H14.3047C14.0038 37.969 13.7463 37.7526 13.6945 37.4562L13.3219 35.3312C13.2538 34.9423 12.9664 34.6282 12.5852 34.5257C11.7437 34.299 10.9353 33.9637 10.1805 33.528C9.83766 33.3294 9.41063 33.3483 9.08672 33.5765L7.32188 34.8163C7.07563 34.9899 6.74016 34.9608 6.52735 34.7476L5.25235 33.4726C5.03953 33.26 5.01024 32.9252 5.18281 32.6788L6.42344 30.9108C6.65149 30.5869 6.67047 30.1599 6.47188 29.8171C6.03602 29.0626 5.70063 28.2545 5.47422 27.4132C5.37172 27.0319 5.05758 26.7446 4.66875 26.6765L2.54375 26.3038C2.24781 26.2522 2.03172 25.9956 2.03125 25.6952V23.8913C2.03094 23.5904 2.24727 23.3329 2.54375 23.2812L4.66875 22.9085C5.05758 22.8404 5.37172 22.553 5.47422 22.1718C5.70047 21.3296 6.03586 20.5207 6.47188 19.7655C6.67047 19.4227 6.65149 18.9957 6.42344 18.6718L5.1836 16.9093C5.01 16.663 5.03907 16.3276 5.25235 16.1147L6.52813 14.839C6.74078 14.6261 7.07578 14.5971 7.32188 14.7702L9.08985 16.0108C9.41375 16.239 9.84078 16.2579 10.1836 16.0593C10.9384 15.6236 11.7467 15.2882 12.5883 15.0616C12.9695 14.9591 13.2569 14.645 13.325 14.2562L13.6977 12.1312C13.7945 11.5787 13.4252 11.0522 12.8727 10.9554C12.3202 10.8585 11.7938 11.2279 11.6969 11.7804L11.4328 13.2882C10.8536 13.4795 10.2898 13.7146 9.7461 13.9913L8.49219 13.1116C7.43875 12.3704 6.00461 12.4954 5.09531 13.4077L3.81563 14.6788C2.90414 15.5886 2.77953 17.0222 3.52031 18.0757L4.4 19.3296C4.12321 19.8734 3.88813 20.4376 3.69688 21.0171L2.18906 21.2812C0.922033 21.5037 -0.00156032 22.6049 2.17823e-06 23.8913V25.6952C-0.00163845 26.9829 0.923674 28.085 2.19219 28.3062L3.7 28.571C3.89125 29.1502 4.12633 29.7141 4.40313 30.2577L3.52031 31.5116C2.77977 32.5652 2.90469 33.9989 3.81641 34.9085L5.09219 36.1835C6.0018 37.0953 7.43571 37.2199 8.48907 36.4788L9.73907 35.5991C10.2827 35.8758 10.8466 36.1108 11.4258 36.3022L11.6898 37.8101C11.9123 39.0791 13.0163 40.0037 14.3047 39.9999H16.1086C17.3966 40.0015 18.4987 39.0758 18.7195 37.8069L18.9844 36.2991C19.5636 36.1078 20.1275 35.8727 20.6711 35.596L21.9258 36.4757C22.9793 37.2166 24.4132 37.0916 25.3227 36.1796L26.5984 34.9038C27.5102 33.9942 27.6351 32.5605 26.8945 31.5069L26.0156 30.2569C26.2923 29.7133 26.5273 29.1494 26.7188 28.5702L28.2266 28.3054C28.7791 28.2085 29.1484 27.6821 29.0516 27.1296Z" fill="#1C1C28"/>
<path d="M38.0945 9.21875L37.032 9.03282C36.8993 8.64969 36.7427 8.27524 36.5633 7.91172L37.1883 7.03125C37.8322 6.11563 37.7237 4.86946 36.9313 4.07891L35.925 3.07032C35.1341 2.27625 33.886 2.16735 32.9695 2.8125L32.0859 3.43203C31.7224 3.2525 31.348 3.09594 30.9648 2.96328L30.782 1.90547C30.5897 0.802503 29.6313 -0.00179387 28.5117 3.00478e-06H27.0906C25.9711 -0.00140325 25.0131 0.803284 24.8211 1.90625L24.6344 2.96875C24.2513 3.10141 23.8768 3.25797 23.5133 3.4375L22.6297 2.8125C21.7141 2.1686 20.4679 2.27711 19.6773 3.06953L18.6727 4.07578C17.8786 4.86672 17.7697 6.11477 18.4148 7.03125L19.0344 7.91485C18.8548 8.27836 18.6983 8.65282 18.5656 9.03594L17.507 9.21875C16.4044 9.4111 15.6002 10.369 15.6016 11.4883V12.9094C15.5994 14.0292 16.4038 14.9881 17.507 15.1805L18.5688 15.3664C18.7014 15.7495 18.858 16.124 19.0375 16.4875L18.4172 17.3711C17.7732 18.2864 17.881 19.5323 18.6727 20.3234L19.6773 21.3281C20.4681 22.121 21.7147 22.2295 22.6305 21.5852L23.5164 20.9656C23.88 21.1451 24.2544 21.3016 24.6375 21.4344L24.8242 22.4969C25.0166 23.5995 25.9745 24.4038 27.0938 24.4023H28.5148C29.6345 24.4023 30.5916 23.5963 30.782 22.493L30.968 21.4313C31.3511 21.2986 31.7256 21.142 32.0891 20.9625L32.9695 21.5859C33.8859 22.2314 35.1342 22.1225 35.925 21.3281L36.9305 20.3227C37.7224 19.5323 37.8312 18.2868 37.1883 17.3711L36.5672 16.4844C36.7466 16.1208 36.9032 15.7464 37.0359 15.3633L38.0984 15.1766C39.1987 14.9831 40.0009 14.0273 40.0008 12.9102V11.4891C40.0026 10.3692 39.1978 9.41078 38.0945 9.21875ZM37.9695 12.9125C37.9696 13.0451 37.8743 13.1584 37.7438 13.1813L36.0688 13.475C35.6799 13.5431 35.3658 13.8305 35.2633 14.2117C35.0895 14.8567 34.8324 15.4763 34.4984 16.0547C34.2998 16.3975 34.3188 16.8245 34.5469 17.1484L35.5242 18.5422C35.6006 18.6507 35.5877 18.7985 35.4938 18.8922L34.4891 19.8969C34.3943 19.9879 34.2482 19.9984 34.1414 19.9219L32.7453 18.9453C32.4214 18.7172 31.9944 18.6983 31.6516 18.8969C31.0731 19.2309 30.4536 19.4881 29.8086 19.6617C29.4281 19.7655 29.1421 20.0802 29.075 20.4688L28.7813 22.1438C28.7584 22.2743 28.6451 22.3696 28.5125 22.3695H27.0906C26.9581 22.3696 26.8447 22.2743 26.8219 22.1438L26.5273 20.4688C26.4592 20.0799 26.1719 19.7658 25.7906 19.6633C25.1454 19.4895 24.5256 19.2324 23.9469 18.8984C23.6041 18.6998 23.177 18.7188 22.8531 18.9469L21.4633 19.9219C21.3548 19.9983 21.207 19.9854 21.1133 19.8914L20.1086 18.8867C20.0146 18.7931 20.0017 18.6452 20.0781 18.5367L21.0555 17.143C21.2836 16.8191 21.3025 16.392 21.1039 16.0492C20.7698 15.4709 20.5127 14.8513 20.3391 14.2063C20.2351 13.8261 19.9205 13.5404 19.532 13.4734L17.857 13.1797C17.7265 13.1569 17.6312 13.0435 17.6313 12.9109L17.632 11.4891C17.632 11.3565 17.7273 11.2431 17.8578 11.2203L19.532 10.9258C19.9209 10.8577 20.235 10.5703 20.3375 10.1891C20.5112 9.54407 20.7683 8.92453 21.1023 8.3461C21.3009 8.00328 21.282 7.57625 21.0539 7.25235L20.0789 5.85938C20.0025 5.75086 20.0154 5.60305 20.1094 5.50938L21.1148 4.50391C21.2085 4.40992 21.3563 4.39703 21.4648 4.47344L22.8578 5.45078C23.1817 5.67883 23.6088 5.69782 23.9516 5.49922C24.53 5.16516 25.1495 4.90805 25.7945 4.73438C26.1758 4.63188 26.4631 4.31774 26.5313 3.92891L26.825 2.25391C26.8489 2.12571 26.9602 2.03242 27.0906 2.03125H28.5117C28.6443 2.03117 28.7577 2.12649 28.7805 2.25703L29.0742 3.93203C29.1423 4.32086 29.4297 4.635 29.8109 4.7375C30.4559 4.9111 31.0756 5.16821 31.6539 5.50235C31.9967 5.70094 32.4238 5.68203 32.7477 5.45391L34.1414 4.47657C34.2499 4.40016 34.3977 4.41305 34.4914 4.50703L35.4969 5.5125C35.5882 5.60657 35.5997 5.75219 35.5242 5.85938L34.5469 7.25547C34.3188 7.57938 34.2998 8.00641 34.4984 8.34922C34.8324 8.92766 35.0895 9.54719 35.2633 10.1922C35.3658 10.5734 35.6799 10.8608 36.0688 10.9289L37.7438 11.2227C37.8743 11.2455 37.9696 11.3588 37.9695 11.4914V12.9125Z" fill="#1C1C28"/>
<path d="M27.7996 7.34766C25.1198 7.34766 22.9473 9.52016 22.9473 12.2C22.9503 14.8786 25.121 17.0493 27.7996 17.0523C30.4795 17.0523 32.652 14.8798 32.652 12.2C32.652 9.52016 30.4795 7.34766 27.7996 7.34766ZM27.7996 15.0211C26.2416 15.0211 24.9785 13.758 24.9785 12.2C24.9781 10.6412 26.2408 9.37672 27.7996 9.375V9.37891C29.3577 9.37891 30.6207 10.642 30.6207 12.2C30.6207 13.758 29.3577 15.0211 27.7996 15.0211Z" fill="#1C1C28"/>
</g>
<defs>
<clipPath id="clip0_208_566">
<rect width="40" height="40" fill="white"/>
</clipPath>
</defs>
</svg>
