<svg width="40" height="40" viewBox="0 0 40 40" fill="none" xmlns="http://www.w3.org/2000/svg">
<g clip-path="url(#clip0_208_591)">
<path d="M39.9531 2.98633C39.8665 1.39742 38.6028 0.133906 37.0139 0.0471877C33.8078 -0.127969 27.5341 0.0424222 21.535 3.14531C18.4768 4.72719 15.2424 7.40914 12.6613 10.5035C12.6295 10.5416 12.5985 10.58 12.567 10.6182L6.70916 11.0707C5.74494 11.1452 4.88611 11.6506 4.35283 12.4572L0.356426 18.5019C-0.0480274 19.1136 -0.112324 19.8791 0.184316 20.5497C0.481035 21.2203 1.09072 21.6877 1.81533 21.7999L6.75057 22.5643C6.73314 22.6602 6.71564 22.7561 6.69963 22.852C6.53533 23.8348 6.86096 24.8453 7.5708 25.5551L14.4452 32.4295C15.0337 33.018 15.8289 33.3425 16.6438 33.3425C16.8116 33.3425 16.9803 33.3287 17.1483 33.3006C17.2442 33.2846 17.3401 33.2671 17.436 33.2497L18.2004 38.185C18.3127 38.9096 18.78 39.5194 19.4505 39.816C19.7295 39.9395 20.0247 40.0004 20.3186 40.0004C20.7313 40.0003 21.1412 39.8802 21.4984 39.644L27.5431 35.6475C28.3497 35.1141 28.855 34.2553 28.9294 33.2912L29.3819 27.4334C29.4201 27.4019 29.4585 27.3709 29.4967 27.3391C32.5911 24.758 35.2731 21.5236 36.8549 18.4653C39.958 12.466 40.1281 6.19219 39.9531 2.98633ZM26.2505 33.6923L20.4684 37.5152L19.7234 32.7055C22.1671 31.987 24.5846 30.8362 26.8876 29.2945L26.5928 33.1105C26.5745 33.3486 26.4496 33.5607 26.2505 33.6923ZM16.1024 30.7723L9.22799 23.8978C9.0526 23.7223 8.9715 23.4759 9.01127 23.2384C9.21564 22.0163 9.53322 20.853 9.92635 19.757L20.241 30.0717C18.9248 30.5432 17.7458 30.8245 16.7618 30.989C16.524 31.0285 16.2778 30.9477 16.1024 30.7723ZM6.88971 13.4075L10.7056 13.1127C9.16393 15.4158 8.01314 17.8332 7.29463 20.277L2.48494 19.532L6.30791 13.7498C6.43963 13.5506 6.65174 13.4259 6.88971 13.4075ZM27.9956 25.5392C26.1024 27.1184 24.2646 28.2605 22.5707 29.087L10.9128 17.4291C11.9955 15.2179 13.3168 13.3766 14.461 12.0048C16.8497 9.14117 19.8206 6.67078 22.6119 5.22703C28.1177 2.37914 33.9185 2.22578 36.8863 2.38734C37.2792 2.40875 37.5916 2.72117 37.613 3.11406C37.7748 6.08187 37.6211 11.8827 34.7732 17.3885C33.3295 20.1798 30.8592 23.1505 27.9956 25.5392Z" fill="#1C1C28"/>
<path d="M27.4002 18.4565C28.9004 18.4563 30.4012 17.8853 31.5433 16.7431C32.65 15.6365 33.2594 14.1651 33.2594 12.6001C33.2594 11.0351 32.6499 9.56369 31.5433 8.45705C29.2588 6.17244 25.5416 6.1726 23.2572 8.45705C22.1505 9.56369 21.541 11.0351 21.541 12.6001C21.541 14.1651 22.1505 15.6365 23.2572 16.7431C24.3995 17.8855 25.8995 18.4567 27.4002 18.4565ZM24.9143 10.1142C25.5996 9.42885 26.4998 9.08619 27.4001 9.08619C28.3004 9.08619 29.2006 9.42885 29.8859 10.1142C30.5499 10.7782 30.9155 11.661 30.9155 12.6C30.9155 13.539 30.5499 14.4219 29.8859 15.0859C28.5153 16.4566 26.2849 16.4565 24.9142 15.0859C24.2502 14.4219 23.8845 13.5391 23.8845 12.6001C23.8845 11.6611 24.2503 10.7782 24.9143 10.1142Z" fill="#1C1C28"/>
<path d="M1.19527 32.964C1.4952 32.964 1.79512 32.8496 2.02387 32.6207L5.84988 28.7947C6.30754 28.337 6.30754 27.5951 5.84988 27.1374C5.3923 26.6798 4.65027 26.6798 4.19262 27.1374L0.36668 30.9634C-0.0909766 31.4211 -0.0909766 32.1631 0.36668 32.6207C0.59543 32.8495 0.895352 32.964 1.19527 32.964Z" fill="#1C1C28"/>
<path d="M9.35629 30.6438C8.89871 30.1861 8.15668 30.1861 7.69902 30.6438L0.343242 37.9996C-0.114414 38.4573 -0.114414 39.1992 0.343242 39.6569C0.57207 39.8857 0.871914 40.0001 1.17184 40.0001C1.47176 40.0001 1.77168 39.8857 2.00043 39.6568L9.35621 32.301C9.81394 31.8434 9.81394 31.1014 9.35629 30.6438Z" fill="#1C1C28"/>
<path d="M11.2044 34.1499L7.3784 37.9759C6.92074 38.4336 6.92074 39.1755 7.3784 39.6332C7.60723 39.862 7.90715 39.9764 8.20699 39.9764C8.50684 39.9764 8.80684 39.8621 9.03559 39.6332L12.8616 35.8071C13.3193 35.3495 13.3193 34.6075 12.8616 34.1499C12.404 33.6922 11.662 33.6922 11.2044 34.1499Z" fill="#1C1C28"/>
</g>
<defs>
<clipPath id="clip0_208_591">
<rect width="40" height="40" fill="white"/>
</clipPath>
</defs>
</svg>
