<svg width="40" height="40" viewBox="0 0 40 40" fill="none" xmlns="http://www.w3.org/2000/svg">
<g clip-path="url(#clip0_208_555)">
<path d="M38.0155 23.6361L40 23.388V16.612L38.0155 16.364C37.5114 16.3009 37.1009 15.9431 36.9697 15.4523C36.8387 14.9622 37.0154 14.4475 37.42 14.1412L39.0145 12.9341L35.6265 7.06594L33.7809 7.84461C33.3135 8.04172 32.7799 7.93734 32.4212 7.57875C32.0626 7.22016 31.9582 6.68641 32.1554 6.21914L32.9341 4.37344L27.0659 0.985391L25.8587 2.58C25.5525 2.98453 25.0379 3.16109 24.5477 3.03023C24.0569 2.89906 23.6991 2.48852 23.636 1.98445L23.388 0H16.612L16.364 1.98445C16.3009 2.48859 15.9431 2.89914 15.4523 3.03031C14.9619 3.16125 14.4475 2.98461 14.1413 2.58008L12.9342 0.985469L7.06586 4.37344L7.84453 6.21906C8.04164 6.68633 7.93734 7.22008 7.57867 7.57875C7.22008 7.93734 6.68648 8.04172 6.21906 7.84453L4.37344 7.06586L0.985391 12.9341L2.58 14.1412C2.98453 14.4473 3.16125 14.962 3.03023 15.4522C2.89906 15.943 2.48852 16.3009 1.98445 16.3638L0 16.612V23.388L1.98445 23.636C2.48859 23.6991 2.89914 24.0569 3.03031 24.5477C3.16133 25.0378 2.98461 25.5525 2.58 25.8587L0.985469 27.0659L4.37352 32.9341L6.21914 32.1554C6.68656 31.9584 7.22016 32.0627 7.57883 32.4212C7.93742 32.7798 8.0418 33.3136 7.84461 33.7809L7.06594 35.6265L12.9341 39.0145L14.1412 37.4199C14.4474 37.0154 14.962 36.8387 15.4523 36.9697C15.9431 37.1009 16.3009 37.5114 16.364 38.0155L16.612 40H23.388L23.636 38.0155C23.6991 37.5114 24.0569 37.1009 24.5477 36.9697C25.038 36.8386 25.5525 37.0154 25.8587 37.42L27.0659 39.0145L32.9341 35.6265L32.1554 33.7809C31.9583 33.3136 32.0626 32.7798 32.4212 32.4212C32.7798 32.0626 33.3135 31.9582 33.7809 32.1554L35.6265 32.9341L39.0145 27.0659L37.4199 25.8587C37.0154 25.5526 36.8387 25.0379 36.9697 24.5477C37.1009 24.057 37.5114 23.6991 38.0155 23.6361ZM35.9505 27.6852L34.6309 29.9709C33.2955 29.4355 31.7845 29.7434 30.7639 30.764C29.7434 31.7845 29.4355 33.2956 29.9709 34.6309L27.6852 35.9505C26.7966 34.8214 25.3355 34.333 23.9426 34.7054C22.5479 35.0781 21.525 36.2322 21.3197 37.6562H18.6804C18.4751 36.2322 17.4522 35.0781 16.0576 34.7054C14.6647 34.333 13.2034 34.8214 12.3148 35.9505L10.0292 34.6309C10.5645 33.2956 10.2566 31.7845 9.23609 30.7639C8.21555 29.7434 6.70445 29.4355 5.36914 29.9709L4.04953 27.6852C5.17867 26.7966 5.66703 25.3354 5.29469 23.9425C4.9218 22.5478 3.76773 21.525 2.34375 21.3197V18.6804C3.76773 18.4751 4.9218 17.4522 5.29461 16.0576C5.66695 14.6646 5.17859 13.2035 4.04945 12.3148L5.36906 10.0292C6.70437 10.5645 8.21547 10.2566 9.23609 9.23609C10.2566 8.21562 10.5644 6.70445 10.0291 5.36914L12.3148 4.04945C13.2035 5.17867 14.6648 5.66727 16.0575 5.29461C17.4521 4.92188 18.475 3.76781 18.6803 2.34375H21.3196C21.5249 3.76781 22.5478 4.92188 23.9424 5.29461C25.3353 5.66703 26.7966 5.17859 27.6852 4.04945L29.9709 5.36914C29.4355 6.70437 29.7434 8.21562 30.7639 9.23617C31.7844 10.2566 33.2955 10.5644 34.6309 10.0292L35.9505 12.3148C34.8213 13.2035 34.333 14.6647 34.7053 16.0576C35.0781 17.4523 36.2321 18.4751 37.6562 18.6805V21.3198C36.2322 21.5251 35.0781 22.548 34.7053 23.9426C34.333 25.3354 34.8215 26.7966 35.9505 27.6852Z" fill="#1C1C28"/>
<path d="M19.9998 6.21899C12.4009 6.21899 6.21875 12.4011 6.21875 20C6.21875 27.5989 12.4009 33.781 19.9998 33.781C27.5987 33.781 33.7808 27.5989 33.7808 20C33.7808 12.4011 27.5987 6.21899 19.9998 6.21899ZM19.9998 31.4373C13.6932 31.4373 8.5625 26.3065 8.5625 20C8.5625 13.6935 13.6932 8.56274 19.9998 8.56274C26.3063 8.56274 31.437 13.6934 31.437 20C31.437 26.3066 26.3063 31.4373 19.9998 31.4373Z" fill="#1C1C28"/>
<path d="M13.9044 20L16.7389 17.1656L15.0816 15.5083L10.5898 19.9999L15.0816 24.4921L16.739 22.8349L13.9044 20Z" fill="#1C1C28"/>
<path d="M23.2617 17.1657L26.0963 20.0006L23.2618 22.835L24.9191 24.4923L29.4109 20.0007L24.9191 15.5085L23.2617 17.1657Z" fill="#1C1C28"/>
<path d="M16.5078 24.7285L21.3731 14.3077L23.4966 15.2992L18.6313 25.7199L16.5078 24.7285Z" fill="#1C1C28"/>
</g>
<defs>
<clipPath id="clip0_208_555">
<rect width="40" height="40" fill="white"/>
</clipPath>
</defs>
</svg>
