<svg width="40" height="40" viewBox="0 0 40 40" fill="none" xmlns="http://www.w3.org/2000/svg">
<path d="M16.3787 23.4847L2.51881 16.3441C2.5149 16.342 2.511 16.34 2.50717 16.338C-0.832116 14.5818 -0.834148 9.79369 2.50725 8.03663C2.51115 8.0346 2.51498 8.03257 2.51881 8.03053L16.3789 0.889921C18.625 -0.28854 21.3436 -0.304713 23.6206 0.889921L37.4807 8.03061C37.4846 8.03264 37.4884 8.03467 37.4923 8.03671C40.8316 9.79268 40.8337 14.5808 37.4923 16.338C37.4884 16.3401 37.4845 16.3421 37.4807 16.3441L23.6208 23.4847C21.3791 24.6608 18.6605 24.6818 16.3787 23.4847ZM3.95736 13.5698L17.8152 20.7093C17.8191 20.7113 17.823 20.7134 17.8269 20.7154C19.1841 21.4293 20.8147 21.4296 22.1726 20.7154C22.1766 20.7134 22.1805 20.7113 22.1843 20.7093L36.0421 13.5698C37.1513 12.9821 37.1518 11.3932 36.0425 10.8051L22.1844 3.66537C22.1805 3.66334 22.1766 3.6613 22.1728 3.65927C20.815 2.94528 19.1852 2.94504 17.8269 3.65927C17.8229 3.6613 17.8191 3.66334 17.8153 3.66537L3.95697 10.8051C2.84796 11.393 2.84796 12.982 3.95736 13.5698Z" fill="#1C1C28"/>
<path d="M16.3731 39.1065C16.3694 39.1046 16.3656 39.1026 16.3617 39.1005L0.824153 30.7652C0.0637465 30.3572 -0.222041 29.4101 0.185936 28.6496C0.593913 27.8891 1.54089 27.6034 2.30153 28.0114L17.8329 36.3434C19.1877 37.0537 20.8132 37.054 22.1686 36.3434L37.6999 28.0114C38.4605 27.6034 39.4075 27.8892 39.8155 28.6496C40.2235 29.41 39.9377 30.3572 39.1773 30.7652L23.6396 39.1005C23.6358 39.1026 23.632 39.1046 23.6282 39.1065C21.3832 40.2872 18.6584 40.3084 16.3731 39.1065Z" fill="#1C1C28"/>
<path d="M16.3731 31.2938C16.3694 31.2918 16.3656 31.2898 16.3617 31.2878L0.824153 22.9525C0.0637465 22.5445 -0.222041 21.5973 0.185936 20.8369C0.593913 20.0764 1.54089 19.7907 2.30153 20.1986L17.8329 28.5306C19.1877 29.2409 20.8132 29.2413 22.1686 28.5306L37.6999 20.1986C38.4605 19.7907 39.4075 20.0765 39.8155 20.8369C40.2235 21.5973 39.9377 22.5445 39.1773 22.9525L23.6396 31.2878C23.6358 31.2898 23.632 31.2918 23.6282 31.2938C21.3832 32.4744 18.6584 32.4956 16.3731 31.2938Z" fill="#1C1C28"/>
</svg>
