<svg width="40" height="40" viewBox="0 0 40 40" fill="none" xmlns="http://www.w3.org/2000/svg">
<g clip-path="url(#clip0_216_1014)">
<path d="M22.7709 40H17.2275C15.8742 40 14.7225 39.075 14.4259 37.7517L13.7225 34.63C12.5775 34.145 11.4875 33.5117 10.4659 32.74L7.42919 33.6983C6.12586 34.1 4.70919 33.5483 4.05586 32.385L1.29252 27.605C0.630856 26.4217 0.854189 24.9633 1.82919 24.0467L4.18252 21.8833C4.11086 21.25 4.07419 20.6183 4.07419 20C4.07419 19.3817 4.10919 18.75 4.18086 18.1167L1.83919 15.9633C0.854189 15.0367 0.629189 13.58 1.28419 12.4117L4.06419 7.60333C4.71086 6.45333 6.12586 5.89667 7.42586 6.30167L10.4659 7.26C11.4875 6.48833 12.5792 5.855 13.7225 5.37L14.4259 2.24667C14.7225 0.925 15.8742 0 17.2275 0H22.7709C24.1242 0 25.2759 0.925 25.5725 2.24833L26.2759 5.37C27.4209 5.855 28.5109 6.48833 29.5325 7.26L32.5692 6.30167C33.8692 5.895 35.2875 6.45167 35.9425 7.615L38.7059 12.395C39.3675 13.5783 39.1442 15.0367 38.1692 15.9533L35.8159 18.1167C35.8875 18.75 35.9225 19.3817 35.9225 20C35.9225 20.6183 35.8875 21.25 35.8159 21.8833L38.1592 24.0367C38.1625 24.04 38.1659 24.0433 38.1692 24.0467C39.1442 24.9633 39.3692 26.42 38.7142 27.5883L35.9342 32.3967C35.2859 33.5467 33.8709 34.1033 32.5725 33.6983L29.5309 32.7383C28.5092 33.51 27.4175 34.1433 26.2742 34.6283L25.5709 37.7517C25.2759 39.075 24.1242 40 22.7709 40ZM10.7225 30.0983C11.0092 30.0983 11.2909 30.1967 11.5192 30.3833C12.6609 31.325 13.9109 32.05 15.2325 32.5383C15.6292 32.685 15.9259 33.0233 16.0192 33.4367L16.8675 37.2033C16.9059 37.375 17.0592 37.5 17.2309 37.5H22.7742C22.9459 37.5 23.0975 37.375 23.1375 37.205L23.9859 33.4383C24.0792 33.025 24.3742 32.6867 24.7725 32.54C26.0942 32.0517 27.3442 31.325 28.4859 30.385C28.8125 30.115 29.2509 30.0283 29.6575 30.1567L33.3259 31.315C33.4992 31.3683 33.6859 31.3083 33.7675 31.16L36.5475 26.3533C36.6309 26.205 36.6009 26.0017 36.4659 25.8717L33.6525 23.285C33.3459 23.0033 33.2009 22.59 33.2642 22.1783C33.3742 21.445 33.4309 20.7117 33.4309 20C33.4309 19.2883 33.3759 18.5567 33.2642 17.8217C33.2025 17.41 33.3475 16.9967 33.6525 16.715L36.4725 14.1217C36.5992 14.0017 36.6325 13.7967 36.5392 13.6317L33.7759 8.85333C33.6859 8.695 33.5059 8.63333 33.3225 8.68667L29.6592 9.84333C29.2525 9.97167 28.8142 9.885 28.4875 9.615C27.3459 8.67333 26.0959 7.94833 24.7742 7.46C24.3775 7.31333 24.0809 6.975 23.9875 6.56167L23.1392 2.795C23.0942 2.625 22.9425 2.5 22.7709 2.5H17.2275C17.0559 2.5 16.9042 2.625 16.8642 2.795L16.0159 6.56333C15.9242 6.97667 15.6275 7.31333 15.2309 7.46167C13.9092 7.95 12.6592 8.675 11.5175 9.61667C11.1909 9.88667 10.7525 9.97167 10.3459 9.845L6.67752 8.68667C6.50419 8.63333 6.31752 8.695 6.23586 8.84167L3.45586 13.6467C3.37086 13.7967 3.40419 14.0017 3.54086 14.1317L6.35252 16.715C6.65919 16.9967 6.80419 17.41 6.74086 17.8217C6.63086 18.555 6.57419 19.2883 6.57419 20C6.57419 20.7117 6.62919 21.4433 6.74086 22.1783C6.80252 22.59 6.65752 23.0033 6.35252 23.285L3.53252 25.8783C3.40586 25.9983 3.37252 26.2033 3.46586 26.3683L6.22919 31.1467C6.32086 31.3067 6.50252 31.3717 6.68252 31.3133L10.3459 30.1567C10.4692 30.1167 10.5959 30.0983 10.7225 30.0983Z" fill="#1C1C28"/>
<path d="M18.7522 26.6666C18.6572 26.6666 18.5638 26.6566 18.4688 26.635C17.7972 26.48 17.3772 25.8083 17.5322 25.1366L20.0322 14.3033C20.1872 13.6283 20.8672 13.2133 21.5305 13.365C22.2022 13.52 22.6222 14.1916 22.4672 14.8633L19.9672 25.6966C19.8338 26.2766 19.3205 26.6666 18.7522 26.6666Z" fill="#1C1C28"/>
<path d="M25.4167 25C25.0751 25 24.7351 24.8616 24.4867 24.5866C24.0251 24.0733 24.0667 23.2833 24.5801 22.82L27.7151 20L24.5801 17.18C24.0667 16.7183 24.0251 15.9283 24.4867 15.4133C24.9501 14.9016 25.7401 14.86 26.2534 15.32L30.4201 19.07C30.6834 19.3083 30.8334 19.6466 30.8334 20C30.8334 20.3533 30.6834 20.6916 30.4201 20.93L26.2534 24.68C26.0134 24.895 25.7151 25 25.4167 25Z" fill="#1C1C28"/>
<path d="M14.5846 25C14.2863 25 13.988 24.895 13.748 24.68L9.5813 20.93C9.31797 20.6916 9.16797 20.3533 9.16797 20C9.16797 19.6466 9.31797 19.3083 9.5813 19.07L13.748 15.32C14.2613 14.8583 15.0496 14.9 15.5146 15.4133C15.9763 15.9266 15.9346 16.7166 15.4213 17.18L12.2863 20L15.4213 22.82C15.9346 23.2816 15.9763 24.0716 15.5146 24.5866C15.2663 24.8616 14.9263 25 14.5846 25Z" fill="#1C1C28"/>
</g>
<defs>
<clipPath id="clip0_216_1014">
<rect width="40" height="40" fill="white"/>
</clipPath>
</defs>
</svg>
